<?xml version="1.0" encoding="utf-8"?>
<!-- Generator: Adobe Illustrator 21.0.0, SVG Export Plug-In . SVG Version: 6.00 Build 0)  -->
<svg version="1.1" id="Layer_1" xmlns="http://www.w3.org/2000/svg" xmlns:xlink="http://www.w3.org/1999/xlink" x="0px" y="0px"
	 width="255px" height="71px" viewBox="0 0 255 71" style="enable-background:new 0 0 255 71;" xml:space="preserve">
<style type="text/css">
	.st0{fill:#00A0D3;}
</style>
<g>
	<path class="st0" d="M128.1,51.8c-2.9,0-5.8,0-8.7,0c-3.7-6.6-7.4-13.2-11.1-19.8c-0.1,0-0.1,0-0.2,0c0,6.6,0,13.1,0,19.7
		c-2.7,0-5.3,0-8,0c0-10.8,0-21.5,0-32.4c2.9,0,5.7,0,8.7,0c3.7,6.5,7.4,13.1,11.1,19.7c0.1,0,0.1,0,0.2,0c0-6.5,0-13,0-19.7
		c2.7,0,5.3,0,8,0C128.1,30.1,128.1,40.9,128.1,51.8z"/>
	<path class="st0" d="M179.3,51.7c-1.2-5.2-2.5-10.3-3.8-15.8c-1.3,5.5-2.5,10.6-3.7,15.8c-2.7,0-5.2,0-7.8,0
		c-0.8-1.7-7.2-22.6-7.3-23.5c2.5,0,5.1,0,7.6,0c1.3,5,2.6,9.9,3.9,14.8c0.1,0,0.2,0,0.3,0c1.1-4.9,2.2-9.8,3.3-14.8
		c2.5,0,4.9,0,7.4,0c1.1,5,2.3,9.9,3.4,14.9c0.1,0,0.1,0,0.2,0c1.3-4.9,2.5-9.9,3.8-14.9c2.6,0,5.2,0,7.9,0
		c-2.5,7.9-4.9,15.7-7.3,23.5C184.5,51.7,182,51.7,179.3,51.7z"/>
	<path class="st0" d="M156.4,41.9c-5.8,0-11.5,0-17.1,0c-0.2,2.2,1,4.2,2.9,5c2.5,1,4.9,0.2,6.7-2.2c2.3,0,4.7,0,7.1,0
		c-0.7,2.7-2.1,4.7-4.5,6c-4.9,2.6-9.8,2.6-14.6,0c-3.5-1.9-5.1-5.1-5.5-8.9c-1.1-10.6,8.7-16.5,17.3-13.5c4.6,1.6,6.7,5.2,7.5,9.8
		C156.5,39.3,156.6,40.5,156.4,41.9z M148.5,37.5c0.2-2.4-1.8-4.6-4.1-4.7c-2.7-0.1-5.1,2-5.1,4.7C142.4,37.5,145.4,37.5,148.5,37.5
		z"/>
	<path d="M89.2,29.5c0-2.3,0-4.3,0-6.4c0-1.2-0.7-1.7-1.8-1.9c-0.5-0.1-1-0.1-1.5-0.1c-0.2-0.4-0.2-0.8,0-1.2c3.1,0,6.2-0.3,9.3-1.6
		c0,0.6,0,1,0,1.5c0,8.1,0,16.3,0,24.4c0,0.7,0,1.4,0,2.2c0.1,2.4,0.7,3,3.1,2.9c0.3,0.4,0.1,0.8,0.1,1.3c-2.8,0.7-5.5,1.4-8.3,2.1
		c-0.8-1-0.8-2.3-0.9-3.6c-1,0.7-1.9,1.3-2.8,1.9c-4.5,3.5-9.4,1.5-11.8-1.7c-3-3.9-3.8-8.3-2.1-13c1.7-4.9,5.6-7.1,10.6-7.6
		C85,28.4,87,28.8,89.2,29.5z M89.2,39.4c0-1.8,0-3.6,0-5.4c0-0.6-0.2-1-0.5-1.4c-2.5-3.3-7.3-3.1-9.2,0.6c-1.6,3-1.8,6.2-1.4,9.5
		c0.3,2,0.9,3.9,2.5,5.3c1.6,1.4,3.4,2.2,5.5,1.3c2.1-0.9,3.1-2.6,3-4.9C89.2,42.7,89.2,41,89.2,39.4z"/>
	<path class="st0" d="M216.7,35.1c-2.4,0-4.7,0-7,0c-1-2.4-3.2-3.3-5.8-2.3c-0.6,0.2-1.1,0.7-1.2,1.4c-0.1,0.7,0.3,1.1,0.9,1.5
		c1.4,0.9,3.1,1.1,4.7,1.4c1.3,0.3,2.5,0.4,3.8,0.8c2.7,0.7,4.7,2.3,5.2,5.1c0.5,3-0.4,5.6-3,7.4c-2.9,2-6.3,2.4-9.7,2.1
		c-2.1-0.1-4.2-0.5-6.1-1.6c-2.5-1.5-3.8-3.7-3.8-6.7c2.4,0,4.8,0,7.2,0c1,3,3.4,4.1,6.2,3c1-0.4,1.7-1,1.7-2.1
		c0-1.1-0.8-1.7-1.7-1.9c-1.9-0.5-3.8-0.9-5.7-1.4c-1.3-0.3-2.5-0.6-3.7-1.2c-2.2-1-3.4-2.7-3.6-5.1c-0.2-2.5,0.7-4.5,2.8-5.9
		c3-1.9,6.3-2.2,9.6-2c1.9,0.1,3.7,0.5,5.3,1.3C215.3,30.1,216.5,32.2,216.7,35.1z"/>
	<path d="M58.6,52c0-0.6,0-1,0-1.5c0.1-0.1,0.1-0.1,0.2-0.2c2.4-0.7,2.6-1.2,1.8-3.6c-0.6-1.6-1.2-3.2-1.8-4.9c-0.5,0-0.9,0-1.3,0
		c-3.5,0-6.9,0-10.4,0c-0.7,1.7-1.4,3.4-2.1,5.2c-0.7,1.9-0.2,2.8,1.7,3.2c0.2,0,0.3,0.1,0.5,0.1c0,0.5,0,1,0,1.6
		c-3.2,0-6.4,0-9.6,0c-0.2-0.5-0.1-1.1-0.1-1.6c0.1-0.1,0.1-0.2,0.2-0.2c3-0.5,4.4-2.5,5.4-5.1c3.4-8.2,6.8-16.4,10.1-24.6
		c0.2-0.5,0.4-0.9,0.6-1.4c1.1,0,2.2,0,3.4,0c2,4.9,4,9.7,6,14.6c1.6,3.9,3.3,7.8,4.8,11.7c0.9,2.5,2.1,4.7,5.1,4.7
		c0.3,0.6,0.1,1.1,0.2,1.7C68.4,52,63.5,52,58.6,52z M53,26.9c-1.8,4.4-3.4,8.5-5.1,12.7c3.4,0,6.6,0,10,0
		C56.2,35.4,54.6,31.3,53,26.9z"/>
</g>
</svg>
