<?xml version="1.0" encoding="utf-8"?>
<!-- Generator: Adobe Illustrator 21.0.0, SVG Export Plug-In . SVG Version: 6.00 Build 0)  -->
<svg version="1.1" id="Layer_1" xmlns="http://www.w3.org/2000/svg" xmlns:xlink="http://www.w3.org/1999/xlink" x="0px" y="0px"
	 width="255px" height="71px" viewBox="0 0 255 71" style="enable-background:new 0 0 255 71;" xml:space="preserve">
<path d="M86.5,15.5c0.6,0,1.1,0,1.7,0c6.3,0,12.6,0,18.8,0c3.9,0,7.1,1.6,9.3,4.9c2.8,4.3,1.8,9.7-2.2,13c-0.2,0.2-0.4,0.4-0.7,0.6
	c3.6,1.7,5.9,4.4,6.6,8.5c1.4-1.7,3-2.7,5-3.3c-0.3-0.7-0.7-1.3-0.9-2c-1-4.2,2.5-7.6,6.9-6.9c2.5,0.4,4.1,1.8,4.4,3.9
	c0.2,1.5-0.9,2.9-2.3,2.9c-1,0-1.9-0.7-2-1.7c-0.1-0.9,0.5-1.9,1.4-2.2c0.3-0.1,0.6-0.1,1-0.2c-1-1.3-4.1-1.5-5.7-0.4
	c-1.7,1.2-2.2,4.5-0.9,6.3c0.5,0,1,0,1.5,0c0.4,0,0.7,0,1.1,0.1c0.8,0.2,1.3,0.8,1.2,1.5c-0.1,0.6-0.8,1-1.6,0.9
	c-0.7-0.1-1.4-0.3-2-0.7c-0.2-0.1-0.5-0.2-0.7-0.4c-1.5,0.8-2.2,2.2-2.5,3.7c-0.2,1-0.2,2.1,0,3.1c0.3,1.9,1.3,3.4,3,4.2
	c2.9,1.3,5.9,1.5,8.8,0.2c3.4-1.4,4.9-5.7,3.4-9.4c-1.7,0.3-3.4,0.5-5,1.4c-1.4,0.8-1.9,2.2-1.3,3.6c0.2-0.1,0.2-0.3,0.2-0.4
	c0.2-0.8,0.6-1.2,1.4-1.2c0.7,0,1.2,0.3,1.5,1c0.3,0.7,0,1.4-0.5,1.9c-0.8,0.6-2.1,0.6-2.9-0.1c-1.5-1.1-1.7-3.5-0.5-5.3
	c0.8-1.2,2-1.9,3.2-2.5c2-0.9,4-1.6,6-2.5c1.6-0.7,3-1.7,3.5-3.5c0.2-0.7,0.2-1.5,0.1-2.2c-0.3-1.6-2.1-2.5-3.8-1.9
	c0.6,0.2,1.2,0.4,1.6,1c0.5,0.8,0.4,1.9-0.4,2.5c-0.7,0.6-1.9,0.5-2.7-0.2c-1.3-1.2-0.9-3.3,0.7-4.2c1.9-1.1,4.7-0.6,6.3,1.2
	c0.1,0.1,0.2,0.3,0.4,0.5c0-1.1,0-2.1,0-3.2c-2.6,0-5.1,0-7.7,0c0-4.2,0-8.4,0-12.6c9.8,0,19.5,0,29.3,0c0,4.2,0,8.3,0,12.5
	c-2.5,0-5.1,0-7.7,0c0,8.7,0,17.3,0,26c-4.7,0-9.2,0-13.9,0c0-5.3,0-10.6,0-15.8c-1.5,2.2-3.8,3.1-6.3,3.7c0,0.1,0,0.3,0.1,0.4
	c1.8,3.6,0.6,9.8-5.2,12c-4.1,1.6-8.3,1.4-12.3-0.3c-2.5-1.1-3.8-2.7-4.7-5.5c-0.2,0-0.3,0.2-0.4,0.3c-1.7,2.5-4.1,4-7,4.7
	c-1.8,0.5-3.7,0.7-5.6,0.7c-6.1,0-12.2,0-18.2,0c-0.3,0-0.6,0-1,0C86.5,41.3,86.5,28.5,86.5,15.5z"/>
</svg>
