<?xml version="1.0" encoding="utf-8"?>
<!-- Generator: Adobe Illustrator 21.0.0, SVG Export Plug-In . SVG Version: 6.00 Build 0)  -->
<svg version="1.1" id="Layer_1" xmlns="http://www.w3.org/2000/svg" xmlns:xlink="http://www.w3.org/1999/xlink" x="0px" y="0px"
	 width="255px" height="71px" viewBox="0 0 255 71" style="enable-background:new 0 0 255 71;" xml:space="preserve">
<style type="text/css">
	.st0{fill:#0C223D;}
</style>
<g>
	<path class="st0" d="M13.7,26c2,0,4,0,6,0c4.8,0.1,8.1,3.3,7.9,8.6c-0.2,5-3,7.8-7.7,8.1c-1.7,0.1-3.4,0-5.1,0
		c-0.4,0-0.7,0.1-1.1,0.1C13.7,37.2,13.7,31.6,13.7,26z M16.4,40.2c2.8,0,5.8,0.7,7.7-2.4c1.3-2.1,1.2-5.5-0.2-7.4
		c-1.9-2.7-4.8-2.1-7.5-2.1C16.4,32.4,16.4,36.3,16.4,40.2z"/>
	<path class="st0" d="M241,40c-2.1,3.8-8.7,3.7-11.7,0.3c0.1-0.3,0.2-0.6,0.6-0.8c2,1.8,4.3,2.4,6.9,2.1c2.2-0.3,3.4-1.8,2.9-3.7
		c-0.3-1.1-1.2-1.6-2.2-1.9c-1.7-0.5-3.5-0.8-5.1-1.4c-2.6-0.9-3.4-3.8-1.7-6c0.2-0.2,0.4-0.5,0.6-0.6c2.3-1.9,6.8-1.5,8.9,0.7
		c0,0.4-0.3,0.6-0.5,0.9c-1.7-1.7-3.7-1.9-5.8-1.5c-1.7,0.3-2.7,1.4-2.8,2.9c0,1.1,0.4,1.9,1.4,2.4c1.2,0.6,2.5,0.8,3.8,1.1
		c1.9,0.4,3.8,1,4.8,2.9C241.3,38.1,241.4,39,241,40z"/>
	<path class="st0" d="M126.2,45.5c0-6.7,0-13.3,0-20c0.3,0,0.6,0,0.9,0c0,6.7,0,13.3,0,20C126.8,45.5,126.5,45.5,126.2,45.5z"/>
	<path class="st0" d="M136.8,42.7c0-5.4,0-10.5,0-15.8c2.6,0,5.2-0.1,7.7,0c1.5,0.1,2.4,1.2,2.9,2.6c0.5,1.6,0.3,3.1-0.9,4.3
		c-0.2,0.2-0.5,0.4-0.8,0.7c0.1,0.3,0.4,0.3,0.7,0.5c1.5,1,2.2,2.8,1.8,4.6c-0.3,1.5-1.7,2.8-3.3,3
		C142.3,42.9,139.6,42.6,136.8,42.7z M138.1,41.6c2.1,0,4.2,0.1,6.2,0c1.6-0.1,2.8-1.5,2.9-3.1c0-1.6-1.1-3.1-2.5-3.2
		c-2.2-0.1-4.4,0-6.6,0C138.1,37.4,138.1,39.4,138.1,41.6z M138.1,34.2c2,0,3.8,0,5.7,0c1.4,0,2.6-1.2,2.7-2.7
		c0.2-1.6-0.7-3.2-2-3.4c-2.1-0.2-4.3,0-6.4,0C138.1,30.1,138.1,32.1,138.1,34.2z"/>
	<path class="st0" d="M198.5,40.5c0-4.6,0-9,0-13.3c0.3-0.4,0.7-0.3,1.1-0.3c0,5.2,0,10.4,0,15.6c-0.3,0.2-0.6,0.1-1,0
		c-3.4-4.3-6.9-8.7-10.6-13.3c0,4.6,0,8.9,0,13.1c-0.4,0.4-0.8,0.3-1.2,0.2c0-5.2,0-10.4,0-15.6c0.8-0.4,1.1,0.2,1.5,0.7
		c3.2,4.1,6.4,8.1,9.7,12.2C198.1,40,198.2,40.2,198.5,40.5z"/>
	<path class="st0" d="M205.1,41.6c3.1,0,6.1,0,9.1,0c0.1,0.4,0.1,0.7,0,1c-3.4,0-6.8,0-10.3,0c0-5.2,0-10.4,0-15.6
		c3.3,0,6.7,0,10.1,0c0.3,0.2,0.1,0.5,0.1,1c-3,0-5.9,0-9,0c0,2.1,0,4.1,0,6.1c2.6,0,5.1,0,7.6,0c0.3,0.3,0.2,0.6,0.1,1
		c-2.6,0-5.1,0-7.7,0C205.1,37.3,205.1,39.4,205.1,41.6z"/>
	<path class="st0" d="M215.8,40.4c0.2-0.3,0.3-0.5,0.5-0.8c0.1,0,0.3,0,0.3,0.1c1.9,1.8,4.2,2.3,6.7,1.9c1.8-0.2,2.9-1.2,2.9-2.7
		c0-1.1-0.4-2-1.4-2.5c-1.1-0.6-2.3-0.8-3.4-1.1c-0.8-0.2-1.6-0.4-2.4-0.6c-1.6-0.5-2.7-1.4-2.7-3.2c-0.1-1.7,0.8-3.3,2.4-4
		c2-0.9,5.9-1,8,1.2c0,0.4-0.3,0.7-0.6,1c-1.6-1.7-3.7-1.9-5.9-1.5c-1.4,0.2-2.4,1.1-2.6,2.3c-0.3,1.5,0.2,2.5,1.6,3.1
		c1.4,0.6,2.9,0.7,4.3,1.1c0.6,0.2,1.3,0.4,1.9,0.7c1.5,0.6,2.2,1.7,2.2,3.4c0,1.7-0.8,2.8-2.2,3.5
		C222.5,43.5,218.2,42.8,215.8,40.4z"/>
	<path class="st0" d="M177.8,28.7c-0.1,0.3-0.3,0.6-0.6,0.9c-1.6-1.6-3.7-1.8-5.8-1.5c-1.5,0.2-2.4,1.1-2.7,2.5
		c-0.3,1.3,0.2,2.2,1.3,2.8c1.2,0.6,2.4,0.8,3.7,1.1c1,0.2,1.9,0.5,2.8,0.9c1.4,0.7,2.2,1.8,2.2,3.4c0,1.7-0.8,2.8-2.2,3.5
		c-2.9,1.4-7.1,0.6-9.5-1.7c0-0.4,0.2-0.6,0.5-0.9c0.2,0.1,0.4,0.3,0.6,0.4c2.1,1.7,4.4,2.1,6.9,1.5c1.6-0.4,2.3-1.2,2.4-2.5
		c0.1-1.4-0.5-2.3-2-2.9c-1.2-0.5-2.5-0.7-3.7-1c-0.6-0.2-1.2-0.3-1.7-0.5c-1.3-0.5-2.3-1.3-2.5-2.8c-0.2-1.6,0.3-3,1.7-4
		C171.4,26.1,175.7,26.6,177.8,28.7z"/>
	<path class="st0" d="M151.2,27c0.4-0.1,0.8-0.2,1.2,0c0,2.6,0,5.3,0,7.9c0,1.3,0.2,2.5,0.6,3.7c0.8,2,2.4,3,4.6,3.1
		c2.3,0,3.9-1,4.8-3c0.5-1.2,0.7-2.4,0.7-3.7c0-2.7,0-5.4,0-8c0.4-0.2,0.7-0.2,1.2,0c-0.2,3.6,0.4,7.2-0.3,10.8c-0.6,3.2-3,5-6.2,5
		c-3.2,0-5.5-1.9-6.2-5.1c-0.3-1.3-0.3-2.6-0.3-4C151.2,31.5,151.2,29.3,151.2,27z"/>
	<path class="st0" d="M181.5,26.9c0.4,0,0.7,0,1,0c0,5.2,0,10.4,0,15.6c-0.3,0.2-0.7,0.2-1,0C181.5,37.4,181.5,32.2,181.5,26.9z"/>
	<path class="st0" d="M87.1,39.8c-0.5,0-1,0-1.5,0c-1.6-2.8-3.1-5.7-4.8-8.8c0,4.1,0,7.8,0,11.6c-1,0.2-1.8,0.1-2.7,0.1
		c0-5.5,0-11,0-16.6c0.9-0.2,1.8,0,2.8-0.1c1.8,3.3,3.6,6.6,5.5,10.1c1.8-3.4,3.6-6.7,5.4-10.1c0.9,0,1.8,0,2.8,0
		c0,5.5,0,11.1,0,16.6c-0.9,0-1.7,0-2.6,0c0-3.8,0-7.6,0-11.3c-0.1,0-0.1,0-0.2-0.1C90.2,34,88.7,36.9,87.1,39.8z"/>
	<path class="st0" d="M55.9,26c1,0,1.8,0,2.7,0c0,5.5,0,11,0,16.6c-0.7,0-1.4,0-2.2,0c-3-3.7-6-7.5-9.2-11.5c0,3.9,0,7.7,0,11.4
		c-1,0.1-1.8,0.2-2.7,0c0-5.5,0-11,0-16.5c0.7,0,1.4,0,2.1,0c3,3.8,6.1,7.7,9.3,11.8C55.9,33.8,55.9,29.9,55.9,26z"/>
	<path class="st0" d="M60.6,42.6C62.9,37,65,31.5,67.2,26c0.7-0.2,1.4-0.1,2.2-0.1c2.2,5.5,4.4,11,6.6,16.6c-1,0-1.9,0-2.8,0
		c-0.6-1.4-1.2-2.9-1.8-4.4c-2.1,0-4.1,0-6.3,0c-0.6,1.4-1.1,2.9-1.7,4.4C62.5,42.6,61.7,42.6,60.6,42.6z M71,36.1
		c-0.9-2.4-1.7-4.6-2.6-7.1c-0.9,2.5-1.8,4.7-2.7,7.1C67.5,36.1,69.1,36.1,71,36.1z"/>
	<path class="st0" d="M117.8,29.6c-0.7,0.5-1.4,0.9-2,1.4c-1.6-2.4-3.7-3.2-5.9-2.3c-2.2,0.8-3.7,3.4-3.5,6.1
		c0.2,3.1,2.1,5.4,4.7,5.7c2.2,0.2,3.7-0.8,4.8-2.7c0.7,0.4,1.4,0.8,2.1,1.2c-0.7,2.5-4,4.2-7.3,3.9c-3.3-0.3-6.5-3.7-6.9-7.4
		c-0.4-4.3,1.9-8.1,5.5-9.2C112.8,25.1,116.2,26.5,117.8,29.6z"/>
	<path class="st0" d="M36.5,42.6c-0.9,0-1.8,0-2.7,0c0-1.6,0-3.2,0-4.9c0-0.8-0.2-1.5-0.6-2.1c-1.7-2.8-3.3-5.7-4.9-8.5
		c-0.2-0.3-0.3-0.6-0.6-1.1c1,0,1.9,0,2.9,0c1.5,2.7,3,5.4,4.5,8.2c1.6-2.8,3.1-5.5,4.6-8.2c0.9,0,1.8,0,2.7,0
		c0.2,0.3-0.1,0.5-0.3,0.8c-1.7,3-3.4,6-5.1,8.9c-0.4,0.7-0.6,1.4-0.6,2.2C36.5,39.5,36.5,41,36.5,42.6z"/>
	<path class="st0" d="M98.4,26c0.9,0,1.7,0,2.5,0c0,5.5,0,11,0,16.6c-0.8,0-1.6,0-2.5,0C98.4,37.1,98.4,31.6,98.4,26z"/>
</g>
</svg>
