<?xml version="1.0" encoding="utf-8"?>
<!-- Generator: Adobe Illustrator 21.0.0, SVG Export Plug-In . SVG Version: 6.00 Build 0)  -->
<svg version="1.1" id="Layer_1" xmlns="http://www.w3.org/2000/svg" xmlns:xlink="http://www.w3.org/1999/xlink" x="0px" y="0px"
	 width="255px" height="71px" viewBox="0 0 255 71" style="enable-background:new 0 0 255 71;" xml:space="preserve">
<style type="text/css">
	.st0{fill:#1A1B1E;}
</style>
<g>
	<path class="st0" d="M40,37.8c-0.7,1.5-0.2,3.2-0.8,4.7c-1.8,0-3.6,0-5.3,0c0-3.8,0-7.4,0-11.1c0.8,0,1.5,0,2.2,0
		c0.2,0.8,0.5,1.6,0.7,2.3c0.9,0.1,1.6,0.3,2.4-0.1c0-2.5,0-4.8,0-7.3c-0.9,0-1.6,0-2.4,0c-0.2,0.8-0.4,1.5-0.7,2.3
		c-0.8,0.1-1.5,0.2-2.1-0.1c0-3.5,0-7,0-10.4c1.8,0,3.5,0,5.2,0c0.1,1.5,0.3,3,0.4,4.5c1.3,0,2.4,0,3.6,0c0.1-2.4,0.3-4.8,0.4-7.2
		c-6.1,0-12,0-18.1,0c0,0.9,0,1.8,0,2.6c0.9,0.1,1.8,0.3,2.7,0.4c0,7.9,0,15.7,0,23.6c-0.8,0.2-1.6,0.4-2.5,0.6
		c0.2,0.9-0.4,1.7,0.1,2.6c6.1,0,12.1,0,18.2,0c-0.1-2.6-0.2-5-0.4-7.5C42.3,37.8,41.2,37.8,40,37.8z"/>
	<path class="st0" d="M117.6,24.3c-1.2,0.3-2,1.1-3,1.8c-0.3-0.7-0.5-1.3-0.7-2c-2,0.3-4,0.6-6,0.9v2.1c0.8,0.3,1.6,0.1,2.2,0.6
		v25.1c-0.7,0.3-1.4,0.1-1.9,0.7c-0.2,0.6-0.2,1.3,0,1.9h8.9c0.1-0.8,0.3-1.4,0-2.1c-0.7-0.2-1.3-0.3-1.9-0.5v-7.7
		c5.9,1.3,9.2-0.4,10.4-5.5c0.9-3.7,0.8-7.4-0.2-11.1C124.4,25,121.3,23.3,117.6,24.3z M120.4,42c-1.8,0.8-3.5,0.8-5.2,0V29
		c0.7-1.5,1.9-1.7,3.3-1.5c1.4,0.2,2,1.2,2.2,2.4C121.4,34,121.4,38,120.4,42z"/>
	<path class="st0" d="M175.6,42.6c0-4.3,0-8.6,0-12.9c-0.1-3.8-2.6-5.9-6.4-5.6c-1.7,0.2-3.1,0.9-4.3,1.9c-0.3-0.6-0.5-1.1-0.8-1.7
		c-2,0.3-3.9,0.6-5.8,0.9c0,0.8-0.2,1.6,0.2,2.3c0.6,0.1,1.3,0.2,2,0.3c0,5,0,9.9,0,14.7c-0.6,0.6-1.4,0.3-2,0.8
		c0,0.6-0.2,1.3,0.1,2c3,0,5.9,0,8.9,0c0.2-0.8,0.3-1.4,0.1-2.1c-0.6-0.4-1.4-0.1-2.1-0.8c0-4.1,0-8.2,0-12.3c0-1.3,0.6-2,1.8-2.1
		c1.3-0.2,2.4,0.1,2.9,1.4c0.2,0.8,0.3,1.6,0.3,2.4c0,4,0,8,0,12c0,0.5-0.2,1.1,0.2,1.5c2.3,0,4.5,0,6.7,0c0.1-0.8,0.3-1.4,0.1-2.1
		C177,43,176.4,42.8,175.6,42.6z"/>
	<path class="st0" d="M62.7,42.5c0-4.1,0-8.3,0-12.6c0-4-2.7-6.2-6.7-5.7c-1.5,0.2-2.7,1-3.9,1.8c-0.6-0.5-0.2-1.3-1-1.6
		c-1.8,0.3-3.7,0.5-5.7,0.8c0,0.8,0,1.5,0,2.3c0.8,0.1,1.5,0.2,2.3,0.3c0,5,0,9.9,0,14.8c-0.7,0.2-1.3,0.4-2,0.6
		c0,0.7-0.2,1.4,0,2.1c3,0,5.9,0,9,0c0-0.8,0.4-1.4,0-2.1c-0.6-0.4-1.4-0.1-2-0.8c0-4.1,0-8.3,0-12.5c0-1.1,0.5-1.7,1.6-1.9
		c2-0.3,3.2,0.6,3.2,2.8c0,4.8,0,9.7,0,14.6c2.4,0,4.7,0,7,0c0.1-0.8,0.4-1.4,0-2.2C64,42.9,63.3,43,62.7,42.5z"/>
	<path class="st0" d="M212.6,42.5c-0.3-6,0.3-12.1-0.4-18.4c-2.7,0.3-4.9,0.6-7.1,0.8c-0.1,0.8-0.2,1.4,0.1,2
		c0.7,0.1,1.4,0.3,2.1,0.4c0,4.6,0,9.1,0,13.8c-0.9,1.4-2.2,1.5-3.5,1.1c-1.4-0.4-1.7-1.7-1.7-3c0-4,0-8,0-11.9
		c0-1.1-0.1-2.1-0.7-3.1c-2.2,0.3-4.5,0.5-6.7,0.8c0,0.8,0,1.3,0,1.9c0.7,0.5,1.7,0.1,2.4,0.7c0,4.1,0,8.2,0,12.3
		c0,3.2,1.6,5.2,4.3,5.7c2.1,0.4,4.2,0.3,6-1.3c0.2-0.1,0.4-0.2,0.6-0.3c0.3,0.5,0.3,1.2,0.7,1.4c2,0,3.8,0,5.7,0
		c0.1-0.8,0.4-1.5,0.1-2.2C213.9,42.9,213.2,43,212.6,42.5z"/>
	<path class="st0" d="M100.4,24.1c-3.5-0.2-6.4,1.6-7.8,4.9c-1.3,3.1-1.4,6.3-0.7,9.5c1.5,7.1,9.2,9.6,14.8,5
		c-0.3-0.6-0.5-1.2-0.8-1.8c-6.3,1.8-9.2,0.1-8.9-5.4h10c1.1-2.3,0.5-4.4-0.1-6.5C105.9,26.1,103.8,24.3,100.4,24.1z M102.8,33.5
		h-5.9c0-2,0.4-4,1.3-5.8C101.2,26.3,102.9,28.3,102.8,33.5z"/>
	<path class="st0" d="M150.8,24.1c-3.5-0.2-6.4,1.6-7.8,5.1c-1.4,3.5-1.5,7-0.3,10.6c2.1,6.3,9.3,8.1,14.4,3.7
		c-0.1-0.3-0.3-0.7-0.4-1c-0.1-0.4-0.2-0.7-0.6-0.8c-5.6,2.1-8.5,0.5-8.8-5.4h10.1c0.9-1.9,0.9-3.5,0-6.3
		C156.2,26.1,154.2,24.3,150.8,24.1z M153.1,33.7c-1.8,0-3.4,0-5.1,0c-0.2,0-0.5,0-0.8-0.1c0-2.2,0.4-4.2,1.3-5.9
		C151.3,25.7,153.5,29,153.1,33.7z"/>
	<path class="st0" d="M187.5,24.1c-3.2-0.2-5.9,0.9-7.5,3.8c-2.3,4.3-2.4,8.7-0.4,13.1c2.5,5.2,9.6,6.4,13.9,2.4
		c-0.3-0.6-0.6-1.2-0.8-1.8c-6.1,2-8.9,0.3-8.9-5.3h10.1c1.1-2.5,0.4-4.9-0.3-7.2C192.6,26.2,190.7,24.3,187.5,24.1z M189.7,33.6h-6
		c-0.1-2.1,0.4-4.1,1.3-5.9C188.1,26.4,189.8,28.4,189.7,33.6z"/>
	<path class="st0" d="M83.8,26c-0.2-0.5-0.2-1.1-0.7-1.6c-1.9,0.3-3.8,0.5-5.9,0.8c-0.1,0.8-0.3,1.5,0.1,2.2
		c0.6,0.4,1.4-0.1,2.1,0.6c0,4.4,0,8.9,0,13.5c0,0.4-0.1,0.7-0.1,1c-0.5,0.7-1.3,0.2-1.7,1c-0.2,0.5-0.2,1.1,0,1.8c3.1,0,6,0,9,0
		c0.1-0.8,0.3-1.5,0-2.1c-0.6-0.3-1.4-0.1-1.9-0.7c0-4.7,0-9.3,0-13.9c0.6-0.5,1.2-0.7,2-0.8c0.3,0.9,0,2,0.7,2.9
		c1.1,0,2.1,0.4,3.2,0c0.2-1.8,0.4-3.7,0.7-5.7C88.4,23.5,86.2,25.2,83.8,26z"/>
	<path class="st0" d="M134.3,26c-0.2-0.5-0.4-1.1-0.6-1.6c-2.1,0.3-4,0.6-6.1,0.9c0,0.8-0.2,1.5,0.1,2.2c0.6,0.5,1.4,0,2,0.6
		c0,4.9,0,9.8,0,14.6c-0.5,0.6-1.3,0.2-1.7,0.9c-0.2,0.6-0.2,1.2,0,1.9c3,0,5.9,0,8.8,0c0.3-0.7,0.4-1.4,0.2-2.1
		c-0.6-0.2-1.3-0.3-2-0.5c0-4.8,0-9.5,0-14.2c0.6-0.5,1.2-0.7,1.9-0.7c0.5,0.9,0,1.9,0.6,2.8c1.1,0,2.2,0.4,3.3,0
		c0.2-1.8,0.4-3.7,0.6-5.7C138.7,23.6,136.5,25.1,134.3,26z"/>
	<path class="st0" d="M222.2,25.9c-0.2-0.5-0.4-1-0.6-1.6c-2.1,0.3-4.1,0.6-6.1,0.9c0,0.9-0.3,1.6,0.2,2.3c0.6,0.1,1.2,0.2,1.9,0.2
		c0,5,0,9.9,0,14.9c-0.6,0.2-1.1,0.3-1.7,0.5c-0.1,0.7-0.3,1.4-0.1,2.1c3,0,5.9,0,9,0c0-0.7,0.1-1.4,0.1-2.1
		c-0.7-0.2-1.3-0.3-1.9-0.5c0-4.8,0-9.6,0-14.4c0.6-0.2,1.2-0.4,1.8-0.6c0.2,1.1,0.3,2,0.5,3c1.1-0.2,2.2,0.4,3.4-0.1
		c0.2-1.8,0.4-3.7,0.6-5.6C226.8,23.4,224.6,25.2,222.2,25.9z"/>
	<path class="st0" d="M73.8,42.6c-1.1,0-1.8-0.6-1.8-1.7c0-4.3,0-8.7,0-13.1c1.3-0.2,2.4-0.1,3.4-0.6c0.1-0.8,0.1-1.6,0.2-2.4
		c-1.2-0.4-2.4,0.1-3.5-0.3c-0.3-1.4,0.2-2.8-0.3-4.1c-1.2,0.1-2.3,0.1-3.3,0.2c-0.4,1.4-0.9,2.7-1.2,3.9c-0.9,0.1-1.7,0.1-2.5,0.2
		c-0.1,1-0.3,1.8,0.1,2.7c0.7,0.1,1.3,0.3,2.1,0.4c0,0.6,0,1.2,0,1.9c0,3.7,0,7.5,0,11.2c0,2.6,1.1,4.3,3.2,4.6
		C72,45.9,74,45.9,76,45c-0.1-0.8-0.1-1.5-0.2-2.3C75.1,42.6,74.5,42.6,73.8,42.6z"/>
</g>
</svg>
