<svg xmlns="http://www.w3.org/2000/svg" xmlns:xlink="http://www.w3.org/1999/xlink" viewBox="0 0 252.21 336.59"><defs><style>.cls-1{isolation:isolate;}.cls-13,.cls-14,.cls-15,.cls-2{fill:#ccc;}.cls-15,.cls-19,.cls-21,.cls-23,.cls-25,.cls-27,.cls-28,.cls-29,.cls-3{mix-blend-mode:soft-light;}.cls-4{fill:url(#linear-gradient);}.cls-27,.cls-5{fill:#fff;}.cls-10,.cls-11,.cls-16,.cls-17,.cls-22,.cls-26,.cls-6,.cls-8{fill:none;}.cls-6,.cls-8{stroke:#b3b3b3;}.cls-6{stroke-linecap:round;}.cls-10,.cls-22,.cls-26,.cls-6{stroke-linejoin:round;}.cls-10,.cls-6{stroke-width:5.14px;}.cls-7{fill:#f88790;}.cls-11,.cls-13,.cls-14,.cls-16,.cls-17,.cls-8{stroke-miterlimit:10;}.cls-11,.cls-8{stroke-width:2.03px;}.cls-9{fill:#68b6e8;}.cls-10{stroke:#484f59;}.cls-11{stroke:gray;}.cls-12{opacity:0.4;}.cls-13,.cls-14,.cls-16,.cls-17,.cls-22{stroke:#484f5a;}.cls-13,.cls-14{stroke-width:4.08px;}.cls-14{stroke-dasharray:3.82 3.82;}.cls-16,.cls-17,.cls-22{stroke-width:3.84px;}.cls-17{stroke-dasharray:3.6 3.6;}.cls-18{fill:#bedfea;}.cls-19{fill:url(#linear-gradient-2);}.cls-20{fill:#6798d7;}.cls-21{fill:url(#linear-gradient-3);}.cls-23{fill:url(#linear-gradient-4);}.cls-24{fill:#ca6867;}.cls-25{fill:url(#linear-gradient-5);}.cls-26{stroke:#29abe2;stroke-width:4.08px;opacity:0.3;}.cls-27{opacity:0.5;}.cls-28{fill:url(#linear-gradient-6);}.cls-29{fill:url(#linear-gradient-7);}</style><linearGradient id="linear-gradient" x1="146.43" y1="400.58" x2="143.86" y2="-24.86" gradientUnits="userSpaceOnUse"><stop offset="0"/><stop offset="1" stop-color="#fff"/></linearGradient><linearGradient id="linear-gradient-2" x1="191.29" y1="214.77" x2="163.83" y2="142.38" xlink:href="#linear-gradient"/><linearGradient id="linear-gradient-3" x1="258.66" y1="266.27" x2="274.64" y2="301.72" gradientTransform="translate(144.76 -85.04) rotate(23.73)" xlink:href="#linear-gradient"/><linearGradient id="linear-gradient-4" x1="295" y1="349.76" x2="256.17" y2="255.85" gradientTransform="translate(153.04 -86.79) rotate(23.74)" xlink:href="#linear-gradient"/><linearGradient id="linear-gradient-5" x1="302.07" y1="364.75" x2="284.84" y2="322.26" xlink:href="#linear-gradient"/><linearGradient id="linear-gradient-6" x1="267.43" y1="301.81" x2="232.58" y2="203.77" xlink:href="#linear-gradient"/><linearGradient id="linear-gradient-7" x1="127.88" y1="206.78" x2="128.08" y2="194.15" xlink:href="#linear-gradient"/></defs><title>mobile-application-scanning</title><g class="cls-1"><g id="Layer_1" data-name="Layer 1"><polygon class="cls-2" points="3.91 52.44 3.91 52.44 0 52.44 0 52.44 0 39.6 0 39.6 3.91 39.6 3.91 39.6 3.91 52.44"/><polygon class="cls-2" points="3.91 86.11 3.91 86.11 0 86.11 0 86.11 0 64.44 0 64.44 3.91 64.44 3.91 64.44 3.91 86.11"/><path class="cls-2" d="M228.31,350.67a20.89,20.89,0,0,1-20.82,20.85H83a20.88,20.88,0,0,1-20.84-20.85V55.75A20.88,20.88,0,0,1,83,34.93H207.49a20.88,20.88,0,0,1,20.82,20.82Z" transform="translate(-59.35 -34.93)"/><g class="cls-3"><path class="cls-4" d="M228.31,350.67a20.89,20.89,0,0,1-20.82,20.85H83a20.88,20.88,0,0,1-20.84-20.85V55.75A20.88,20.88,0,0,1,83,34.93H207.49a20.88,20.88,0,0,1,20.82,20.82Z" transform="translate(-59.35 -34.93)"/></g><rect class="cls-5" x="16.5" y="38.21" width="138.48" height="258.84"/><line class="cls-6" x1="63.3" y1="17.84" x2="107.53" y2="17.84"/><rect class="cls-7" x="33.01" y="90.73" width="104.82" height="76.16"/><rect class="cls-8" x="33" y="57.15" width="80.26" height="17.2"/><rect class="cls-9" x="33" y="238.95" width="46.57" height="17.2"/><rect class="cls-7" x="94.53" y="238.95" width="46.58" height="17.2"/><line class="cls-8" x1="29.34" y1="200.05" x2="142.36" y2="200.05"/><line class="cls-8" x1="29.34" y1="184.9" x2="142.36" y2="184.9"/><line class="cls-8" x1="29.34" y1="215.2" x2="98.96" y2="215.2"/><path class="cls-10" d="M267.5,270.47" transform="translate(-59.35 -34.93)"/><circle class="cls-11" cx="84.53" cy="317.52" r="6.94"/><g class="cls-12"><line class="cls-13" x1="155.92" y1="131.45" x2="157.95" y2="131.45"/><line class="cls-14" x1="161.77" y1="131.45" x2="205.66" y2="131.45"/><line class="cls-13" x1="207.58" y1="131.45" x2="209.62" y2="131.45"/><path class="cls-2" d="M297.24,216.53A59.24,59.24,0,1,1,238,157.28,59.24,59.24,0,0,1,297.24,216.53Z" transform="translate(-59.35 -34.93)"/><path class="cls-15" d="M297.24,216.53A59.24,59.24,0,1,1,238,157.28,59.24,59.24,0,0,1,297.24,216.53Z" transform="translate(-59.35 -34.93)"/><path class="cls-2" d="M298.07,189.28a66.77,66.77,0,1,0,1.15,51.16A66.43,66.43,0,0,0,298.07,189.28Zm-40.35,73.95a51.32,51.32,0,1,1,27.15-28.37A51.16,51.16,0,0,1,257.72,263.23Z" transform="translate(-59.35 -34.93)"/><path class="cls-15" d="M298.07,189.28a66.77,66.77,0,1,0,1.15,51.16A66.43,66.43,0,0,0,298.07,189.28Zm-40.35,73.95a51.32,51.32,0,1,1,27.15-28.37A51.16,51.16,0,0,1,257.72,263.23Z" transform="translate(-59.35 -34.93)"/></g><line class="cls-16" x1="157.16" y1="134.02" x2="159.08" y2="134.02"/><line class="cls-17" x1="162.68" y1="134.02" x2="204.05" y2="134.02"/><line class="cls-16" x1="205.85" y1="134.02" x2="207.77" y2="134.02"/><circle class="cls-18" cx="178.58" cy="181.27" r="55.83"/><circle class="cls-19" cx="178.58" cy="181.27" r="55.83"/><rect class="cls-20" x="265.77" y="266.36" width="17.94" height="71.16" transform="translate(-157.64 101.18) rotate(-23.73)"/><rect class="cls-21" x="265.77" y="266.36" width="17.94" height="71.16" transform="translate(-157.64 101.18) rotate(-23.73)"/><path class="cls-22" d="M261.58,272" transform="translate(-59.35 -34.93)"/><path class="cls-20" d="M294.54,190.53a62.93,62.93,0,1,0,1.08,48.21A62.62,62.62,0,0,0,294.54,190.53Zm-38,69.69a48.37,48.37,0,1,1,25.58-26.73A48.2,48.2,0,0,1,256.52,260.21Z" transform="translate(-59.35 -34.93)"/><rect class="cls-7" x="270.11" y="285.08" width="25.73" height="71.16" transform="translate(-164.51 106.13) rotate(-23.74)"/><rect class="cls-23" x="270.11" y="285.08" width="25.73" height="71.16" transform="translate(-164.51 106.13) rotate(-23.74)"/><path class="cls-24" d="M311.56,353.7A18.19,18.19,0,0,1,288,364.06q-1.25-2.82-2.48-5.65L309.08,348Z" transform="translate(-59.35 -34.93)"/><path class="cls-25" d="M311.56,353.7A18.19,18.19,0,0,1,288,364.06q-1.25-2.82-2.48-5.65L309.08,348Z" transform="translate(-59.35 -34.93)"/><line class="cls-26" x1="195.53" y1="132.26" x2="170.35" y2="194.55"/><line class="cls-26" x1="177.47" y1="130.19" x2="161.05" y2="170.81"/><ellipse class="cls-27" cx="225.82" cy="197.79" rx="27.28" ry="16.61" transform="translate(-128.44 106.8) rotate(-30.45)"/><ellipse class="cls-27" cx="258.02" cy="193.8" rx="3.13" ry="3.01" transform="translate(-121.97 122.49) rotate(-30.44)"/><ellipse class="cls-27" cx="258.02" cy="204.28" rx="3.13" ry="3.01" transform="translate(-127.3 124.09) rotate(-30.46)"/><ellipse class="cls-27" cx="268.51" cy="205.78" rx="3.13" ry="3.01" transform="translate(-126.6 129.46) rotate(-30.44)"/><path class="cls-28" d="M294.54,190.53a62.93,62.93,0,1,0,1.08,48.21A62.62,62.62,0,0,0,294.54,190.53Zm-38,69.69a48.37,48.37,0,1,1,25.58-26.73A48.2,48.2,0,0,1,256.52,260.21Z" transform="translate(-59.35 -34.93)"/><path class="cls-29" d="M128,205c0-.14-1.17-2.76.36-4.42-.08,1.59-.17,3.22-.27,4.88C128.05,205.26,128,205.13,128,205Z" transform="translate(-59.35 -34.93)"/></g></g></svg>