<?xml version="1.0" encoding="utf-8"?>
<!-- Generator: Adobe Illustrator 21.0.0, SVG Export Plug-In . SVG Version: 6.00 Build 0)  -->
<svg version="1.1" id="Layer_1" xmlns="http://www.w3.org/2000/svg" xmlns:xlink="http://www.w3.org/1999/xlink" x="0px" y="0px"
	 width="255px" height="71px" viewBox="0 0 255 71" style="enable-background:new 0 0 255 71;" xml:space="preserve">
<style type="text/css">
	.st0{fill:#EF8333;}
	.st1{fill:#E96C24;}
	.st2{fill:#FCBB86;}
	.st3{fill:#23379B;}
	.st4{fill:#848CC5;}
	.st5{fill:#4958C0;}
</style>
<g>
	<g>
		<path class="st0" d="M17.3,23.7c2.5-1.9,5.5-2.8,8.6-2.8v-7.4c-4.6-0.1-9.2,1.4-12.9,4.2L17.3,23.7z"/>
		<path class="st1" d="M17.3,23.7l-4.3-6c-3.8,2.7-6.6,6.5-8,11l7,2.3C12.9,28,14.7,25.5,17.3,23.7z"/>
		<path class="st2" d="M12,40L12,40l-7,2.3c1.4,4.4,4.2,8.3,8,11l4.3-6C14.7,45.5,12.9,42.9,12,40z"/>
		<path class="st0" d="M17.3,47.3L17.3,47.3l-4.3,6c3.7,2.8,8.3,4.3,12.9,4.2v-7.4C22.8,50.1,19.7,49.1,17.3,47.3z"/>
		<path class="st1" d="M34.4,47.3c-2.5,1.9-5.5,2.8-8.6,2.8v7.4c4.7,0.1,9.2-1.4,12.9-4.2L34.4,47.3L34.4,47.3L34.4,47.3z"/>
		<path class="st2" d="M39.7,40c-0.9,3-2.8,5.5-5.3,7.3l4.3,6c3.8-2.7,6.6-6.5,8-11L39.7,40z"/>
		<path class="st0" d="M46.7,28.7l-7,2.3c1,2.9,1,6.1,0,9l7,2.3C48.2,37.9,48.2,33.1,46.7,28.7z"/>
		<path class="st1" d="M39.7,31l7-2.3c-1.4-4.4-4.2-8.3-8-11l-4.3,6C37,25.5,38.8,28,39.7,31z"/>
		<path class="st2" d="M34.4,23.7L34.4,23.7l4.3-6c-3.7-2.8-8.3-4.3-12.9-4.2v7.4C28.9,20.8,31.9,21.8,34.4,23.7z"/>
		<path class="st3" d="M21.4,41.6l-4.1,5.6c2.5,1.9,5.5,2.8,8.6,2.8v-7C24.2,43.1,22.7,42.6,21.4,41.6z"/>
		<path class="st4" d="M18.6,37.8L12,40c0.9,3,2.8,5.5,5.3,7.3l4.1-5.6C20.1,40.7,19.1,39.4,18.6,37.8z"/>
		<path class="st5" d="M21.4,29.3l-4.1-5.7C14.7,25.5,12.9,28,12,31l6.6,2.2C19.1,31.6,20.1,30.3,21.4,29.3z"/>
		<path class="st3" d="M25.8,27.9v-6.9c-3.1-0.1-6.1,0.9-8.6,2.8l4.1,5.6C22.7,28.4,24.2,27.9,25.8,27.9z"/>
		<path class="st4" d="M30.3,29.3l4.1-5.6c-2.5-1.9-5.5-2.8-8.6-2.8v7C27.4,27.9,29,28.4,30.3,29.3z"/>
		<path class="st5" d="M34.4,23.7L34.4,23.7l-4.1,5.6c1.3,0.9,2.3,2.3,2.8,3.8l6.6-2.2C38.8,28,37,25.5,34.4,23.7z"/>
		<path class="st3" d="M33.5,35.5c0,0.8-0.1,1.6-0.4,2.4l6.6,2.2c1-2.9,1-6.1,0-9l-6.6,2.2C33.3,33.9,33.5,34.7,33.5,35.5z"/>
		<path class="st4" d="M30.3,41.6l4.1,5.6l0,0c2.5-1.8,4.4-4.3,5.3-7.3l-6.6-2.2C32.6,39.4,31.6,40.7,30.3,41.6z"/>
		<path class="st5" d="M25.8,43.1v7c3.1,0.1,6.1-0.9,8.6-2.8l-4.1-5.6C29,42.6,27.4,43.1,25.8,43.1z"/>
		<polygon class="st4" points="12,40 18.6,37.8 13.6,35.1 7.4,36.6 		"/>
		<polyline class="st2" points="12,40 7.4,36.6 0,38.2 5,42.3 12,40 		"/>
	</g>
	<path class="st3" d="M62.8,30.9c-1.3-1.2-2.4-1.2-2.9-1.2c-0.5,0-1.2,0.1-1.7,0.6c-0.3,0.3-0.4,0.7-0.4,1.1c0,0.4,0.1,0.7,0.4,0.9
		c0.4,0.4,1,0.5,2.2,1l1.3,0.5c0.8,0.3,1.7,0.7,2.3,1.3c0.8,0.8,1.3,2,1.3,3.2c0,1.8-0.6,3.3-1.5,4.2c-1.5,1.6-3.7,1.8-4.8,1.8
		c-1.2,0-2.3-0.2-3.4-0.7c-0.9-0.5-1.8-1.1-2.5-1.9l2-2.8c0.5,0.5,1,0.9,1.6,1.3c0.6,0.4,1.4,0.6,2.2,0.6c0.6,0,1.3-0.2,1.8-0.6
		c0.4-0.4,0.6-0.9,0.6-1.4c0-0.5-0.2-0.9-0.6-1.2c-0.5-0.4-1.5-0.8-2-0.9l-1.4-0.5c-0.8-0.3-1.7-0.6-2.4-1.3c-0.9-0.9-1-2.2-1-3
		c-0.1-1.4,0.5-2.8,1.5-3.9c1.2-1.2,2.6-1.6,4.2-1.6c1.8,0,3.6,0.6,5.1,1.7L62.8,30.9z"/>
	<path class="st3" d="M78.6,42.4c-1,1-2.8,1.8-5,1.8c-2.2,0-4-0.8-5-1.8c-2.3-2.4-2.3-6.1,0-8.5c1-1,2.8-1.8,5-1.8
		c2.2,0,4,0.8,5,1.8C80.9,36.2,80.9,40,78.6,42.4z M71.6,36c-1.1,1.2-1.1,3.1,0,4.3c0.6,0.5,1.3,0.8,2.1,0.8c0.8,0,1.5-0.3,2-0.8
		c1.1-1.2,1.1-3.1,0-4.3C74.6,34.9,72.7,34.9,71.6,36z"/>
	<path class="st3" d="M91.1,36c-0.7-0.6-1.5-0.9-2.4-0.9c-0.8,0-1.5,0.3-2.1,0.8c-0.6,0.6-0.9,1.3-0.8,2.2c0,0.8,0.3,1.5,0.8,2
		c0.6,0.6,1.4,0.9,2.2,0.9c0.9,0,1.7-0.3,2.3-0.9v3.3c-0.9,0.5-1.9,0.7-2.9,0.7c-1.6,0.1-3.2-0.6-4.4-1.7c-1.2-1.1-1.8-2.7-1.8-4.4
		c0-1.7,0.7-3.3,1.9-4.5c1.3-1.2,2.8-1.6,4.3-1.6c1,0,2,0.2,2.9,0.6L91.1,36L91.1,36z"/>
	<path class="st3" d="M95.6,25.4c1.2,0,2.2,1,2.2,2.2c0,1.2-1,2.2-2.2,2.2s-2.2-1-2.2-2.2C93.4,26.4,94.4,25.4,95.6,25.4
		C95.5,25.4,95.6,25.4,95.6,25.4z M97.4,32.4v11.4h-3.7V32.4H97.4L97.4,32.4z"/>
	<path class="st3" d="M109.2,32.4h3.7v11.4h-3.7v-1.4c-0.7,1.2-2,1.8-3.4,1.8c-1.6,0-3-0.4-4.3-1.8c-1.1-1.2-1.7-2.7-1.7-4.3
		c0-1.7,0.6-3.4,1.8-4.6c1.1-1,2.5-1.6,4-1.6c1,0,2.5,0.2,3.6,1.7L109.2,32.4L109.2,32.4z M104.5,36c-0.5,0.5-0.9,1.3-0.8,2.1
		c0,0.8,0.3,1.5,0.8,2c0.6,0.6,1.3,0.9,2.2,0.9c0.7,0,1.4-0.3,1.9-0.8c1.2-1.2,1.2-3,0.1-4.3c-0.6-0.5-1.3-0.8-2-0.8
		C105.8,35.2,105,35.5,104.5,36z"/>
	<path class="st3" d="M119.4,25.2v18.7h-3.7V25.2H119.4z"/>
	<path class="st3" d="M121.9,43.8l2.7-17.1h3.3l4.3,10.2l4.3-10.2h3.3l2.7,17.1h-4l-1.3-10.2l-4.3,10.2h-1.4l-4.3-10.2l-1.3,10.2
		C125.9,43.8,121.9,43.8,121.9,43.8z"/>
	<path class="st3" d="M156.6,38.8H148c0,0.7,0.2,1.4,0.7,1.9c0.5,0.5,1.2,0.8,1.9,0.7c0.5,0,1-0.1,1.5-0.3c0.4-0.2,0.6-0.6,0.8-0.9
		l3.5,0.4c-0.4,1.2-1.1,2.2-2.2,2.9c-1.1,0.7-2.3,0.8-3.6,0.8c-1.7,0-3.2-0.3-4.6-1.6c-1.1-1.2-1.8-2.8-1.7-4.4
		c0-1.7,0.6-3.3,1.8-4.5c1.4-1.4,3.1-1.6,4.4-1.6s3.1,0.2,4.5,1.7c1.3,1.4,1.6,3.2,1.6,4.6L156.6,38.8L156.6,38.8z M153.2,36.6
		c-0.1-0.5-0.4-1-0.8-1.3c-1.1-0.9-2.6-0.9-3.6,0.1c-0.3,0.4-0.5,0.8-0.6,1.2C148.2,36.6,153.2,36.6,153.2,36.6z"/>
	<path class="st3" d="M171.2,43.8h-3.7v-1.4c-0.6,0.8-1.6,1.8-3.6,1.8c-1.7,0-2.9-0.5-3.9-1.6c-1.2-1.2-1.8-2.9-1.8-4.6
		c0-1.9,0.7-3.4,1.8-4.5c1.1-1,2.5-1.6,4-1.5c1.3,0,2.6,0.4,3.6,1.7v-8.6h3.7V43.8z M162.9,36c-0.6,0.6-0.9,1.3-0.9,2.2
		c0,0.8,0.3,1.6,0.9,2.1c0.5,0.5,1.2,0.8,1.9,0.8c0.8,0,1.5-0.3,2.1-0.8c0.6-0.5,0.9-1.3,0.8-2c0-0.8-0.3-1.5-0.8-2.1
		c-0.5-0.6-1.3-0.9-2.1-0.8C164.1,35.2,163.4,35.4,162.9,36z"/>
	<path class="st3" d="M176.2,25.4c1.2,0,2.2,1,2.2,2.2c0,1.2-1,2.2-2.2,2.2s-2.2-1-2.2-2.2C174,26.4,174.9,25.4,176.2,25.4
		C176.1,25.4,176.1,25.4,176.2,25.4z M178,32.4v11.4h-3.7V32.4H178L178,32.4z"/>
	<path class="st3" d="M189.8,32.4h3.7v11.4h-3.7v-1.4c-0.7,1.2-2,1.8-3.4,1.8c-1.6,0-3-0.4-4.3-1.8c-1.1-1.2-1.7-2.7-1.7-4.3
		c0-1.7,0.6-3.4,1.8-4.6c1.1-1,2.5-1.6,4-1.6c1,0,2.5,0.2,3.6,1.7L189.8,32.4L189.8,32.4z M185.1,36c-0.5,0.5-0.9,1.3-0.8,2.1
		c0,0.8,0.3,1.5,0.8,2c0.6,0.6,1.3,0.9,2.2,0.9c0.7,0,1.4-0.3,1.9-0.8c1.2-1.2,1.2-3,0.1-4.3c-0.6-0.5-1.3-0.8-2-0.8
		C186.3,35.2,185.6,35.5,185.1,36z"/>
	<path class="st1" d="M201.2,28.6v15.3h-1.9V28.6h-4.1v-1.8h10.2v1.8C205.3,28.6,201.2,28.6,201.2,28.6z"/>
	<path class="st1" d="M204.5,38.5c0-3.2,2.4-5.6,5.6-5.6c3.3,0,5.6,2.4,5.6,5.6s-2.4,5.6-5.6,5.6C206.9,44.1,204.5,41.8,204.5,38.5z
		 M206.4,38.5c0,2.6,1.8,3.9,3.7,3.9c1.9,0,3.7-1.3,3.7-3.9s-1.8-4-3.7-4C208.2,34.6,206.4,36,206.4,38.5L206.4,38.5z"/>
	<path class="st1" d="M226.6,25.2h1.8v18.7h-1.8v-1.5c-0.9,1.1-2.2,1.8-3.6,1.8c-2.7,0-5.2-1.9-5.2-5.6c0-3.7,2.5-5.5,5.2-5.5
		c1.4,0,2.8,0.6,3.6,1.8V25.2z M219.7,38.5c0,2.3,1.3,4,3.5,4c2.3,0,3.5-1.9,3.5-4c0-2.7-1.9-3.9-3.5-3.9
		C221.4,34.6,219.7,35.9,219.7,38.5L219.7,38.5z"/>
	<path class="st1" d="M240,33.2h1.8v10.6H240v-1.5c-0.9,1.1-2.2,1.8-3.6,1.8c-2.7,0-5.2-1.9-5.2-5.6c0-3.7,2.5-5.5,5.2-5.5
		c1.4,0,2.8,0.6,3.6,1.8V33.2z M233.1,38.5c0,2.3,1.3,4,3.5,4c2.3,0,3.5-1.9,3.5-4c0-2.7-1.9-3.9-3.5-3.9
		C234.7,34.6,233.1,35.9,233.1,38.5z"/>
	<path class="st1" d="M248.5,42.8l-4.9-9.6h2.1l3.8,7.6l3.4-7.6h2l-7.8,16.5h-2L248.5,42.8z"/>
</g>
</svg>
