<svg id="Layer_1" data-name="Layer 1" xmlns="http://www.w3.org/2000/svg" viewBox="0 0 187.09 42.73"><defs><style>.cls-1{fill:#0080b7;fill-rule:evenodd;}</style></defs><title>vectorSmartObject</title><path class="cls-1" d="M274.65,155.37l-.43,6.65h-2.79c-4.29,0-6.44,3.43-6.44,6.65v14.59h-7.51V155.37h7.08l.21,3.65c1.5-2.57,4.08-3.65,7.29-3.65Z" transform="translate(-87.57 -141.62)"/><path class="cls-1" d="M222.52,183.26H215V168.67c0-3.22-.21-7.08-4.5-7.08s-5.79,3-5.79,6.65v15H197V155.37h7.08l.21,3.65a9.54,9.54,0,0,1,8.37-4.29c7.51,0,9.87,5.36,9.87,11.16v17.38Z" transform="translate(-87.57 -141.62)"/><path class="cls-1" d="M193.77,176.83l-.43,6.22a15.32,15.32,0,0,1-5.36.64c-7.08,0-9.23-3.22-9.23-9.65V147.65h7.51v7.72h7.51l-.43,6.65h-7.08v11.37c0,2.57.86,4.08,3.43,4.08a14.63,14.63,0,0,0,4.08-.64Z" transform="translate(-87.57 -141.62)"/><path class="cls-1" d="M176.39,155.37l-.64,6.65H173.6c-4.08,0-6.22,3.43-6.22,6.65v14.59h-7.51V155.37H167l.21,3.65c1.5-2.57,4.08-3.65,7.29-3.65Z" transform="translate(-87.57 -141.62)"/><path class="cls-1" d="M126,180.26A31.55,31.55,0,0,1,109,184.33c-12.44-.43-21.45-8.15-21.45-21.24s9-21.24,21.45-21.45A23.1,23.1,0,0,1,125.33,147L120,152.37a16.06,16.06,0,0,0-11.37-3.43c-7.94.21-12.66,6-12.66,13.73C95.72,171,100.87,176.83,109,177a18.67,18.67,0,0,0,9-1.29V167h-8.58l.64-7.08H126v20.38Z" transform="translate(-87.57 -141.62)"/><path class="cls-1" d="M254.06,172.11h-20.6a7.11,7.11,0,0,0,6.87,5.79c3.43,0,5.36-1.07,7.72-3.43l4.93,3.65c-3.43,4.29-7.51,5.79-12.44,5.79-8.37,0-14.59-5.79-14.59-14.59,0-8.58,6.22-14.59,14.37-14.59,9,0,13.73,5.36,13.73,15v2.36Zm-7.51-6c-.21-3.43-2.79-5.58-6.44-5.58a6.93,6.93,0,0,0-6.65,5.58Z" transform="translate(-87.57 -141.62)"/><path class="cls-1" d="M155.15,165v18.24H148.5l-.21-2.79c-1.93,2.57-5.36,3.43-8.8,3.43-4.93,0-9.87-2.36-9.87-8.37-.21-9.23,10.3-9.87,16.95-9.87h1.29v-.43c0-3-1.93-4.72-5.79-4.72a12.24,12.24,0,0,0-7.51,3l-4.29-4.29a19,19,0,0,1,12.44-4.51c8.58,0,12.44,4.08,12.44,10.3Zm-7.29,6.22h-1.07c-3.43,0-9.87,0-9.65,3.86,0,5.15,10.73,3.43,10.73-2.79v-1.07Z" transform="translate(-87.57 -141.62)"/></svg>